$MeshFormat
2.2 0 8
$EndMeshFormat
$PhysicalNames
6
2 1 "floor"
2 2 "wall1"
2 3 "ceiling"
2 4 "wall2"
2 5 "wall3"
2 6 "wall4"
$EndPhysicalNames
$Nodes
8
1 0.0 5.1 0.0
2 6.21 4.0 0.0
3 5.52 0.0 0.0
4 0.0 0.0 0.0
5 0.0 5.1 3.3
6 6.21 4.0 3.3
7 0.0 0.0 3.3
8 5.52 0.0 3.3
$EndNodes
$Elements
12
1 2 2 1 1 3 4 1
2 2 2 1 1 3 1 2
3 2 2 2 2 2 1 5
4 2 2 2 2 2 5 6
5 2 2 3 3 6 5 7
6 2 2 3 3 6 7 8
7 2 2 4 4 4 3 8
8 2 2 4 4 4 8 7
9 2 2 5 5 1 4 7
10 2 2 5 5 1 7 5
11 2 2 6 6 6 8 3
12 2 2 6 6 6 3 2
$EndElements
